<svg xmlns="http://www.w3.org/2000/svg" width="500" height="500"><path d="M179 0c1.437-.054 2.875-.093 4.313-.125l2.425-.07C188 0 188 0 191 2v2l1.746.773c2.49 1.355 4.251 2.914 6.316 4.852 3.375 3.075 6.833 5.805 10.563 8.438C221.902 26.838 221.902 26.838 223 33h2c5.61 9.487 10.102 18.3 13 29 1.878-2.817 2.613-4.732 3.5-7.938 1.685-6.07 4.542-10.841 7.938-16.124l1.197-1.893C254.538 29.96 254.538 29.96 257 28h2l.805-1.809c4.627-8.483 18.466-17.317 27.296-21.088 2.38-1.15 2.38-1.15 3.899-5.103h10c4 12 4 12 4.438 15.375.384 3.479.384 3.479 1.562 5.938 2.84 7.631 2.088 16.326 1.963 24.354-.045 3.928.056 7.495 1.037 11.333l1.941-1.977C326.288 40.527 343.838 24.89 365 23c3.093 4.455 3.093 4.455 2.625 7.188L367 32l1 2c-.326 2.001-.66 4.001-1 6v3.75c0 3.25 0 3.25-1 5.25v5l-1 1c-.04 2.333-.042 4.667 0 7 4.893-3.05 9.77-6.111 14.484-9.434l1.744-1.228c1.645-1.167 3.285-2.342 4.924-3.518 2.432-1.554 4.037-2.4 6.848-2.82v-2c1.206-.63 2.415-1.254 3.625-1.875l2.04-1.055c2.718-1.246 5.487-2.164 8.335-3.07 2.359 29.877 2.359 29.877-4 42-.376 1.39-.728 2.787-1.063 4.188C398.46 95.064 391.283 107.803 383 117h-2v3h-2v3l1.902-.969c4.976-1.656 10.029-1.463 15.237-1.597l2.49-.09 2.252-.057c2.391-.324 4.004-1.155 6.119-2.287 1.99-.388 3.994-.708 6-1 9.826-1.625 18.866-3.867 27.5-9.063 5.034-2.95 10.706-4.398 16.5-4.937l2 2c-.388 6.062-2.557 11.504-5 17l-.855 3.71c-1.074 4.431-2.863 8.259-4.957 12.29l-1.088 2.125c-8.972 17.356-20.67 32.042-39.1 39.875h-3v2c1.305-.095 2.61-.19 3.953-.29 9.66-.64 18.566-1.005 28.047 1.29l3.719.781c12.944 2.835 25.347 7.63 36.281 15.219l2.332 1.5c3.978 2.57 7.367 5.089 10.668 8.5a589.23 589.23 0 0 0 3.688 2.313c3.136 2.144 3.267 2.503 4.25 6.5L498 221h-2v3l-2 1 .25 2.188c-.396 4.458-3.194 6.756-6.25 9.812l-2.129 2.371c-3.366 3.082-6.702 4.789-10.808 6.691-4.97 2.343-9.562 4.775-14.063 7.938 1.147 3.442 1.844 3.854 4.754 5.82l2.33 1.61 2.478 1.695c16.31 11.462 16.31 11.462 19.438 20.875-.334 2.335-.947 3.894-2 6h-2v2c-2.125 1.55-2.125 1.55-5 3.313-4.13 2.516-4.13 2.516-8.16 5.187-5.076 3.502-9.804 4.556-15.84 5.5l-2.047.516c-2.63.652-5.262.908-7.953 1.203-2.056.289-3.992.756-6 1.281-1.582.359-3.166.713-4.75 1.063l-2.422.535L432 311a323.627 323.627 0 0 0 2.75 3.375l1.547 1.898c1.578 1.8 1.578 1.8 3.57 2.602 3.11 1.64 5.199 4.159 7.508 6.75l1.48 1.645c8.904 9.99 17.915 21.278 19.52 34.918-.49 3.68-1.45 4.561-4.375 6.812-4.185 2.847-7.849 4.64-13 5l-2-1-1 2h-18v-2l-1.582.61c-3.393.548-5.829-.365-9.106-1.36l-3.753-1.133L412 370l-2.777-.867c-3.573-1.153-6.886-2.398-10.223-4.133v-2l-3 1a155.71 155.71 0 0 1-5-3c-1.914-.681-3.827-1.362-5.742-2.04-3.588-1.526-6.789-3.643-10.059-5.753-2.22-1.448-2.22-1.448-5.199-1.207a283932060.857 283932060.857 0 0 1 2.862 8.017c1.177 3.299 2.358 6.596 3.548 9.89l1.34 3.718 1.234 3.414A74.146 74.146 0 0 1 381 384c1.35 4.329 2.828 8.598 4.5 12.813 1.675 4.375 2.721 8.873 3.8 13.425.677 2.89.677 2.89 1.95 6.075.978 3.502.51 6.164-.25 9.687-1 1-1 1-3.398 1.133l-2.977-.008-2.96.008C379 427 379 427 376 426v-2l-3 1c-5.807-2.363-11.006-6.26-16-10l-3.102-2.246a4682.33 4682.33 0 0 1-3.336-2.442l-3.183-2.324L345 406v-2l-3-1v-2l-1.875-.75c-2.529-1.487-2.843-2.687-4.125-5.25-2.034-1.268-2.034-1.268-4-2v-2h-2a118.839 118.839 0 0 1-4.625-5.5l-2.477-3.094L321 380l.691 1.828.872 2.422.878 2.39c.604 2.551.406 3.913-.441 6.36h2l.402 2.45.536 3.238.527 3.199c.323 1.881.664 3.76 1.039 5.633 1.09 5.45 1.69 10.668 1.683 16.23l-.002 2.141c-.065 5.617-.874 10.679-2.185 16.109-.386 2.04-.761 4.081-1.125 6.125l-.508 2.82L325 453h-2l.598 1.648c1.279 7.476-4.342 16.19-8.036 22.391-1.692 2.124-3.065 2.96-5.562 3.961-4.277-4.094-8.061-7.822-11-13l-2.5-2.5c-2.399-2.399-3.77-4.615-5.5-7.5l-2.313-2.313c-2.765-2.765-4.979-5.655-7.257-8.82-1.374-1.904-1.374-1.904-3.11-3.422C277 442 277 442 277 439l-3-1c-1.688-1.563-1.688-1.563-3-3l-.113 2.09c-.396 5.654-1.181 10.622-3.168 15.937-.748 1.942-.748 1.942-1.192 3.887-.652 2.58-1.547 5.026-2.464 7.524l-1.028 2.808C256.193 485.45 256.193 485.45 249 490c-3.375.813-3.375.813-6 1l-.875 2.813C241 497 241 497 239 500c-2.625.188-2.625.188-5 0-4.062-6.4-4.062-6.4-3.75-9.438L231 489h-2c-.363-1.29-.715-2.582-1.063-3.875l-.597-2.18C227 481 227 481 228 479h-2c-1.726-6.001-3.133-11.809-4-18a367.857 367.857 0 0 0-2-5c-2.544-7.582-4.622-15.125-6-23l-.563-3.063c-.485-2.644-.964-5.29-1.437-7.937l-1.031 1.984C201.67 441.492 187.152 467.115 170 478c-2.8-.262-2.8-.262-5-1-.915-3.111-1.11-4.685-.027-7.793 1.082-3.377 1.199-5.867 1.09-9.394-.088-5.133.181-10.073.718-15.172.29-3.493.249-6.948.156-10.45.063-2.191.063-2.191.574-4.03.549-2.426.511-4.446.368-6.927l-.147-2.695-.17-2.789-.158-2.836c-.13-2.305-.264-4.61-.404-6.914l-1.215 1.688c-3.903 5.24-8.025 9.52-13.062 13.683L151 425v2c-5.476 5-5.476 5-8 5v2a106.595 106.595 0 0 1-5.375 4.625l-3.023 2.477C132 443 132 443 130 443l-1 2-3 2-1-3-2.438-.75C120 442 120 442 118.626 439.187c-1.29-5.615-.254-11.531.375-17.187h-2l.063-2.188c-.075-3.366-.628-6.41-1.626-9.625-1.71-8.556-.162-19.012 2.563-27.187.369-1.56.722-3.122 1.063-4.688l.535-2.449L120 374l-1.398 1.32C111.788 381.541 104.307 386.027 96 390c-1.23.624-2.459 1.25-3.688 1.875C71.084 402.449 71.084 402.449 63 402l-2.625.563C58 403 58 403 55 402c.55-4.616 1.866-7.897 4-12a171.99 171.99 0 0 0 1.5-4c1.261-3.47 2.782-6.727 4.5-10l-3.875-.938c-2.226-.538-4.072-1.036-6.125-2.062-1.358-15.614 12.999-34.114 22-46 1.72-2.367 3.423-4.746 5.125-7.125l1.379-1.918c2.435-3.363 2.435-3.363 4.496-6.957-3.648-2.335-6.754-2.154-11-2-3 0-3 0-5.703-.469-4.986-.803-9.993-.973-15.031-1.25C53 307 53 307 51 306c-2.1-.206-4.206-.366-6.313-.5-8.149-.52-8.149-.52-11.687-1.5l-1-2-2.188.563C23.716 303.51 18.3 300.837 13 298c-2.563-2.25-2.563-2.25-4-4 2.15-4.255 4.137-6 8.375-8.125 3.626-1.848 7.156-3.743 10.625-5.875l-1.68-1.023-2.195-1.352-2.18-1.336C20 275 20 275 18 273a332.445 332.445 0 0 0-5.188-3.813l-2.968-2.167a104.856 104.856 0 0 0-5.125-3.446C2.812 262.375 2.812 262.375 0 260c-.438-3.313-.438-3.313 0-6 1.247-.65 2.498-1.296 3.75-1.938l2.11-1.09c2.762-1.255 5.38-1.85 8.367-2.331 9.052-1.475 16.006-5.568 23.773-10.266 5.07-3 10.135-5.44 16-6.375l2 1v-2c2.207-.65 4.416-1.295 6.625-1.938l3.727-1.09c3.215-.857 6.37-1.426 9.648-1.972l1-1-1.836-.262C57.022 221.696 40.904 208.358 30 194c-2.208-3.572-4.12-7.247-6-11l-1.293-2.3c-1.712-3.103-2.756-5.116-2.457-8.7l.75-2 2.043-.402c3.43-.693 6.85-1.425 10.27-2.16l3.8-.817L40 166c0-5.848-6.641-13.157-9.82-18.014C27.225 143.44 24.96 139.043 23 134c1.696-2.104 2.55-2.932 5.268-3.34.864.015 1.728.03 2.619.047l2.842.03c.976.024 1.952.05 2.959.076l2.994.04c2.44.036 4.879.085 7.318.147l-1-1a82.946 82.946 0 0 1-1.625-4.25l-.852-2.328c-.603-2.791-.25-4.685.477-7.422 7.427-.103 14.635.001 22 1v2l2.688-.625c3.682-.417 4.957.267 8.312 1.625 1.8 0 3.6-.007 5.398-.063C88.29 120.08 94.173 121.15 100 122a170.48 170.48 0 0 0-6.563-12.125C91.516 106.625 89.642 103.4 88 100c-2.694-5.467-5.405-10.916-8.29-16.285-.395-.74-.792-1.478-1.2-2.24a787.942 787.942 0 0 0-2.35-4.335C73.682 72.533 71.742 67.934 70 63c2-2 2-2 5.688-2.188 3.83.097 7.525.6 11.312 1.188 1.666.151 3.333.296 5 .438 15.354 1.526 28.998 9.848 42 17.562l.184-2.887.254-3.8.246-3.762c.262-2.942.702-5.671 1.316-8.551.276-2.27.498-4.54.719-6.816C137 52 137 52 137.508 49.98c.511-2.057.703-3.993.867-6.105.55-5.203 2.025-9.913 3.625-14.875l1.016-3.418a2101747581.33 2101747581.33 0 0 0 2.02-6.797C146 16 146 16 148 13c4.913 1.491 7.837 4.33 11.438 7.813 6.542 7.3 6.542 7.3 14.562 11.187 2.915-11.362 2.915-11.362 4-23V7h2l-1-7Zm53 120a1420.4 1420.4 0 0 0-.063 6.813l-.035 3.832c-.064 3.351-.064 3.351 1.098 6.355.04 2.333.044 4.667 0 7l-3.313.438c-3.618.445-3.618.445-6.687 1.562-6.585-.13-10.178-2.905-15-7l-.77 1.828c-3.409 7.917-3.409 7.917-6.23 11.172l-1.344 1.684c-3.712 4.554-6.985 7.426-12.656 9.316-4.177.387-6.274.484-9.813-1.875A405.619 405.619 0 0 1 173 157a523.49 523.49 0 0 0-5-4l-2 1c1.164 3.142 2.326 4.265 5 6.438 3.045 2.6 4.175 3.71 5 7.562-.436 6.436-.436 6.436-3 9-1.988.398-3.99.738-6 1l-.266 2.637c-.836 3.829-2.187 6.019-4.484 9.175l-2.047 2.895c-3.077 3.203-5.328 3.189-9.59 3.426l-2.3-.008-2.325.008C144 196 144 196 142 195c1.364 2.992 2.95 5.29 5.125 7.75l1.633 1.86L150 206c-6.144-.473-11.458-2.016-17.266-4.063-3.321-1.147-3.321-1.147-6.734-1.937l-2 1c2.315 2.315 3.753 2.648 6.875 3.5 4.365 1.199 7.88 2.255 11.125 5.5l2.625 1.25C147 213 147 213 147.75 215.813c-1.102 4.683-3.76 6.68-7.75 9.187-4.596 1.723-9.149 2.36-14 3-1.34.309-2.677.63-4 1 .58 1.999.58 1.999 2 4 2.883 1.183 2.883 1.183 6 2 2.595 1.153 3.971 1.971 6 4l3.063 1.938C142 243 142 243 143 246l2 1v7c-2.937 1.523-5.917 2.801-9 4 .781 2.496.781 2.496 2 5l3 1v3c-2.59.725-4.998 1.118-7.688 1.438L130 269l-1 2 1.898.184 2.477.253 2.46.247C138 272 138 272 140 273c2.098-.4 2.098-.4 4-1l1 2h3c-.551 3.95-1.39 7.35-3 11 3.303.89 6.623 1.463 10 2l1 5-5 2v2l-2.813.313c-3.45.744-3.877 1.281-6.187 3.687a505.01 505.01 0 0 1-6 2l-1 2c-3.32 1.602-6.701 3.023-10.094 4.465-3.199 1.261-3.199 1.261-3.906 4.535 3.883 0 4.58-.054 7.602-1.969l1.984-1.23 2.039-1.301c7.135-4.5 7.135-4.5 9.375-4.5l1.75-1.813c4.166-4.05 8.555-5.51 14.25-6.187-.423 5.39-1.495 7.947-5 12-.778 2.182-.778 2.182-1 4 4.654-1.28 8.152-3.254 12.07-5.977C166 305 166 305 170 305l2 2 1.625 1.188c2.184 2.878 1.673 5.299 1.375 8.812a100.38 100.38 0 0 1-2 6v2h-2l2 4 1.39-1.68 1.86-2.195 1.828-2.18c1.905-1.928 3.505-2.798 5.922-3.945l1-2c3.51.949 4.752 1.596 6.688 4.75 2.359 5.842 3.666 11.005 4.312 17.25l-2 1c3.732-.583 5.595-2.205 8.375-4.688 4.19-3.345 4.19-3.345 7.875-3.062 7.238 4.606 7.238 4.606 8.21 8.68.151 1.374.271 2.753.36 4.132.236 2.543 1.102 4.64 2.18 6.938l2-1v-2h2l.875-1.938C227 345 227 345 229 344l.813-1.938c1.588-2.758 3.247-3.033 6.187-4.062l2-2c7.188.342 7.188.342 9.563 2.266 1.667 2.01 3.085 4.1 4.5 6.296 1.552 2.407 2.908 4.41 4.937 6.438 2.196-2.937 2.196-2.937 2.938-6.625.35-1.114.7-2.228 1.062-3.375l3-1 .375 3.438c.895 7.027 2.105 13.323 5.625 19.562 2.51-3.766 2.315-7.642 2-12l-.563-2.563c-.588-3.28.069-6.162.563-9.437l-1-2 2-1 .875-2c1.125-2 1.125-2 2.96-2.715 3.991-.526 6.925 1.549 10.165 3.715 2.84 2.516 5.419 5.223 8 8a713.469 713.469 0 0 0 4 4c1.26-2.52.919-3.854.563-6.625l-.31-2.477L299 336h-2l.5-2.063c.57-3.353.567-6.54.5-9.937h2v-2c2.438.813 2.438.813 5 2l1 3h2v2h2l1 3h2l-1-15c4.695 1.174 5.146 2.06 7.75 5.938l1.86 2.714C323 328 323 328 323 330h2v2h2l.688 2.188c1.56 3.344 3.615 5.328 6.312 7.812.825-1.759.825-1.759 1-4-1.413-2.382-1.413-2.382-3.438-4.625C328 329.178 328 329.178 328 327l-2.313-2.313c-2.464-2.464-3.949-4.708-5.687-7.687l-2-1c-2.478-4.099-3.73-7.203-3-12 2.232-2.848 3.55-3.85 7-5l1 2 3 1 2 2c2.069.643 2.069.643 4 1l1-2c-1.227-2.831-2.645-5.535-4.066-8.273C328 292 328 292 328.66 289.773 330 288 330 288 333 286c4.325-.087 6.548 1.213 9.613 4.055a261.854 261.854 0 0 1 3.7 3.82l1.916 1.934c4.623 4.747 4.623 4.747 5.771 8.191 1.401 1.429 1.401 1.429 3.063 2.688L360 309v-2l3-1c-5.207-7.018-10.917-13.087-17.338-19-3.654-3.49-5.477-5.696-5.662-11l6 1c.277-3.185.277-3.185-2-6h-2v-2h-2l-1-5h-2c.006-1.771.056-3.543.125-5.313l.07-2.988C338 253 338 253 340.531 251.22c3.98-1.399 7.665-1.995 11.844-2.406l2.23-.249c1.798-.198 3.596-.382 5.395-.564-4.342-2.19-8.415-3.891-13.188-4.875C343 242 343 242 341.5 239.875L341 238l5-6-2.438-2.75c-3.655-4.45-3.655-4.45-3.562-7.25 2.116-2.57 4.222-4.148 7-6-3-1.333-3-1.333-6 0l-3-3c1.199-3.083 2.477-6.063 4-9h2v-2l6-2v-3l5-2-1-2h-3v2h-3v-2l-3 1c-2.395.07-4.792.084-7.188.063l-3.855-.028L331 194c1-3 1-3 3.031-4.098l2.469-.964c3.46-1.165 3.46-1.165 5.5-3.938a78.037 78.037 0 0 1 5-2l-1-3-3.176 1.496-4.137 1.941-2.091.987c-5.597 2.622-9.403 3.693-15.596 3.576l-1-2h-2v-2h-2c2.495-7.239 5.91-11.403 12-16l-1-2c-5.018 1.094-5.018 1.094-9.063 4.063C316 172 316 172 313.063 173c-3.972 0-5.232-1.327-8.062-4l-2-1c1.217-7.652 1.217-7.652 2-10l2-1 .438-3.125c.702-4.843 2.377-8.504 4.562-12.875l-2-2c-1.938 1.77-3.876 3.541-5.813 5.313l-1.658 1.513c-3.2 2.922-3.2 2.922-6.236 6.014C295 153 295 153 292.125 153.25c-2.791-.223-5.402-.61-8.125-1.25-2.271-5.395-2.204-10.262-2-16-5.981 2.152-5.981 2.152-10.813 6.063-2.985 2.643-5.257 2.666-9.187 2.937l-3.188.313c-3.628-.404-4.555-1.511-6.812-4.313a122.59 122.59 0 0 1-3-4l-2 1v2c-3.313.313-3.313.313-7 0-3.501-3.735-3.585-8.103-4-13h-2l1-7h-3Zm-132 2 1 2Zm150 13 1 2Zm-127 63 1 2Zm245.313 14c-3.597 1.086-6.577 1.15-10.313 1v2c4.724.652 9.22 1.12 14 1l1-5c-2.166-.116-2.166-.116-4.688 1ZM354 214l1 2Zm-41 118 1 2Zm-48 18 1 2Zm-48 91 1 2Z" fill="#FEF179"/><path d="M165 461h1v5h-1v-5Z" fill="#FFFF67"/><path d="M408 48h1v5h-1v-5Z" fill="#FFFF6B"/><path d="m82 61 4 1Z" fill="#FF6"/><path d="m365 56 1 4Z" fill="#FFFF6D"/><path d="m147 197 3 1Z" fill="#FFFF62"/><path d="m218 146 3 1Z" fill="#FFFF5A"/><path d="m63 402 2 1Z" fill="#FFFF5B"/><path d="m454 306 2 1Z" fill="#FFFF57"/><path d="m138 268 2 1Z" fill="#FFFF5F"/><path d="m323 189 2 1Z" fill="#FFFF64"/><path d="m184 164 2 1Z" fill="#FF6"/><path d="m181 164 2 1Z" fill="#FFFF74"/><path d="m262 146 2 1Z" fill="#FFFF70"/><path d="m227 146 2 1Z" fill="#FFFF74"/><path d="m401 119 2 1Z" fill="#FFFF6C"/><path d="m78 119 2 1Z" fill="#FFFF5E"/><path d="m424 114 2 1Z" fill="#FFFF48"/></svg>