<?xml version="1.0" encoding="UTF-8"?>
<svg version="1.1" xmlns="http://www.w3.org/2000/svg" width="500" height="500">
<path d="M0 0 C1.4370809 -0.05422947 2.87475462 -0.09289723 4.3125 -0.125 C5.11300781 -0.14820312 5.91351563 -0.17140625 6.73828125 -0.1953125 C9 -0 9 -0 12 2 C12 2.66 12 3.32 12 4 C12.57621094 4.25523437 13.15242187 4.51046875 13.74609375 4.7734375 C16.23519766 6.12799318 17.99742809 7.68730636 20.0625 9.625 C23.43749113 12.6997448 26.89487322 15.43037477 30.625 18.0625 C42.90173191 26.83898391 42.90173191 26.83898391 44 33 C44.66 33 45.32 33 46 33 C51.60946334 42.48678835 56.10206099 51.2999175 59 62 C60.87777796 59.18333306 61.61302692 57.26813641 62.5 54.0625 C64.18471234 47.99204195 67.04161264 43.22060102 70.4375 37.9375 C70.83259766 37.31294922 71.22769531 36.68839844 71.63476562 36.04492188 C75.53795045 29.95959046 75.53795045 29.95959046 78 28 C78.66 28 79.32 28 80 28 C80.26554687 27.40316406 80.53109375 26.80632813 80.8046875 26.19140625 C85.43206768 17.70787591 99.27098744 8.8741424 108.10058594 5.1027832 C110.48088527 3.95316714 110.48088527 3.95316714 112 0 C115.3 0 118.6 0 122 0 C126 12 126 12 126.4375 15.375 C126.82171743 18.85376823 126.82171743 18.85376823 128 21.3125 C130.83975836 28.9443506 130.08824554 37.63948807 129.96337891 45.66674805 C129.91837741 49.59503943 130.01935328 53.16168743 131 57 C131.64066406 56.34773438 132.28132813 55.69546875 132.94140625 55.0234375 C147.28838458 40.52678876 164.83837755 24.88943058 186 23 C189.09349221 27.45462878 189.09349221 27.45462878 188.625 30.1875 C188.315625 31.0846875 188.315625 31.0846875 188 32 C188.33 32.66 188.66 33.32 189 34 C188.67421616 36.00124361 188.33944795 38.00102872 188 40 C188 41.2375 188 42.475 188 43.75 C188 47 188 47 187 49 C187 49.845625 187 50.69125 187 51.5625 C187 52.366875 187 53.17125 187 54 C186.67 54.33 186.34 54.66 186 55 C185.95907063 57.33297433 185.95758277 59.66705225 186 62 C190.89335409 58.95023422 195.77050173 55.88897746 200.484375 52.56640625 C201.34736206 51.95817017 201.34736206 51.95817017 202.2277832 51.33764648 C203.87316661 50.17062958 205.51287797 48.99562818 207.15234375 47.8203125 C209.58432714 46.26571132 211.18925808 45.41991807 214 45 C214 44.34 214 43.68 214 43 C215.20556604 42.36967867 216.41463189 41.7460503 217.625 41.125 C218.29789062 40.77695312 218.97078125 40.42890625 219.6640625 40.0703125 C222.38332324 38.8243636 225.15151403 37.90596545 228 37 C230.35890586 66.87672013 230.35890586 66.87672013 224 79 C223.62434333 80.39020387 223.27216546 81.78686309 222.9375 83.1875 C219.4589362 95.06380873 212.28220244 107.80417332 204 117 C203.34 117 202.68 117 202 117 C202 117.99 202 118.98 202 120 C201.34 120 200.68 120 200 120 C200 120.99 200 121.98 200 123 C200.62777344 122.6803125 201.25554687 122.360625 201.90234375 122.03125 C206.87812348 120.3747483 211.93088135 120.56783551 217.13867188 120.43359375 C217.96044922 120.40394531 218.78222656 120.37429687 219.62890625 120.34375 C220.37213135 120.32505859 221.11535645 120.30636719 221.88110352 120.28710938 C224.27216156 119.96312225 225.88493719 119.13182815 228 118 C229.99005807 117.61169599 231.9935269 117.29185063 234 117 C243.82576511 115.37457537 252.8663881 113.13311879 261.5 107.9375 C266.53364663 104.98712994 272.2061246 103.53896515 278 103 C278.66 103.66 279.32 104.32 280 105 C279.61211502 111.06208808 277.44287175 116.50353856 275 122 C274.71769531 123.22460938 274.43539063 124.44921875 274.14453125 125.7109375 C273.07127996 130.14127812 271.28248526 133.96885156 269.1875 138 C268.82857666 138.70133057 268.46965332 139.40266113 268.09985352 140.12524414 C259.12803871 157.48098856 247.42968422 172.16738421 229 180 C228.01 180 227.02 180 226 180 C226 180.66 226 181.32 226 182 C227.30453125 181.90460938 228.6090625 181.80921875 229.953125 181.7109375 C239.61316934 181.06946464 248.51862766 180.70450985 258 183 C259.2271875 183.2578125 260.454375 183.515625 261.71875 183.78125 C274.66276633 186.61612276 287.0664619 191.41055924 298 199 C298.76957031 199.495 299.53914063 199.99 300.33203125 200.5 C304.31041028 203.07084267 307.6989868 205.58895303 311 209 C312.22617826 209.77557823 313.45562604 210.54600065 314.6875 211.3125 C317.82381282 213.4569874 317.95472208 213.81586979 318.9375 217.8125 C318.9684375 219.3903125 318.9684375 219.3903125 319 221 C318.34 221 317.68 221 317 221 C317 221.99 317 222.98 317 224 C316.34 224.33 315.68 224.66 315 225 C315.0825 225.721875 315.165 226.44375 315.25 227.1875 C314.85367875 231.64611411 312.0563182 233.9436818 309 237 C308.29746094 237.78246094 307.59492188 238.56492188 306.87109375 239.37109375 C303.50485435 242.45337826 300.169199 244.1597676 296.0625 246.0625 C291.09349485 248.40549496 286.50099716 250.8373275 282 254 C283.14718112 257.44154336 283.84388576 257.85387363 286.75390625 259.8203125 C287.52283203 260.35140625 288.29175781 260.8825 289.08398438 261.4296875 C289.90189453 261.98914063 290.71980469 262.54859375 291.5625 263.125 C307.872537 274.58679855 307.872537 274.58679855 311 284 C310.66641914 286.33506599 310.05310196 287.89379608 309 290 C308.34 290 307.68 290 307 290 C307 290.66 307 291.32 307 292 C304.875 293.55078125 304.875 293.55078125 302 295.3125 C297.86968966 297.82907621 297.86968966 297.82907621 293.83984375 300.5 C288.76364411 304.00226505 284.03636955 305.05553402 278 306 C276.98679687 306.25523437 276.98679687 306.25523437 275.953125 306.515625 C273.32214708 307.16810752 270.69053938 307.42447226 268 307.71875 C265.94362533 308.00792769 264.00834656 308.47491703 262 309 C260.41773109 309.35889212 258.83437137 309.71300632 257.25 310.0625 C256.45078125 310.23910156 255.6515625 310.41570312 254.828125 310.59765625 C254.22484375 310.73042969 253.6215625 310.86320312 253 311 C253.9080162 312.13199353 254.82683826 313.25532363 255.75 314.375 C256.26046875 315.00148438 256.7709375 315.62796875 257.296875 316.2734375 C258.87534088 318.07315109 258.87534088 318.07315109 260.8671875 318.875 C263.9774894 320.5155988 266.06555538 323.03383815 268.375 325.625 C268.86323242 326.16769531 269.35146484 326.71039063 269.85449219 327.26953125 C278.75920373 337.25989384 287.770364 348.54809403 289.375 362.1875 C288.88417952 365.86865363 287.92569581 366.74946476 285 369 C280.8153044 371.8472142 277.15111595 373.64061982 272 374 C271.34 373.67 270.68 373.34 270 373 C269.67 373.66 269.34 374.32 269 375 C263 375 257 375 251 375 C251 374.34 251 373.68 251 373 C250.47792969 373.20109375 249.95585937 373.4021875 249.41796875 373.609375 C246.02467437 374.15756472 243.58908799 373.2448716 240.3125 372.25 C239.07371094 371.87617188 237.83492188 371.50234375 236.55859375 371.1171875 C235.38425781 370.74851562 234.20992188 370.37984375 233 370 C232.08347656 369.71382813 231.16695313 369.42765625 230.22265625 369.1328125 C226.64978157 367.9795052 223.336896 366.73518592 220 365 C220 364.34 220 363.68 220 363 C219.01 363.33 218.02 363.66 217 364 C215.31243867 363.03567924 213.6502694 362.0268343 212 361 C210.08643896 360.318902 208.172773 359.63809083 206.2578125 358.9609375 C202.67001316 357.43395024 199.4691446 355.31682642 196.19921875 353.20703125 C193.97979227 351.75942925 193.97979227 351.75942925 191 352 C191.30292969 352.84820312 191.60585938 353.69640625 191.91796875 354.5703125 C192.56635912 356.38580555 193.21471585 358.20131073 193.86230469 360.01708984 C195.03910701 363.31560238 196.21993422 366.61255381 197.41015625 369.90625 C197.85230469 371.1334375 198.29445313 372.360625 198.75 373.625 C199.36101562 375.31496094 199.36101562 375.31496094 199.984375 377.0390625 C200.78152856 379.36307172 201.43148813 381.61623971 202 384 C203.35064589 388.328576 204.82820831 392.59782516 206.5 396.8125 C208.17460055 401.18750352 209.22123339 405.68590218 210.30078125 410.23828125 C210.97719402 413.12780149 210.97719402 413.12780149 212.25 416.3125 C213.22754567 419.81537198 212.75977341 422.47741421 212 426 C211 427 211 427 208.6015625 427.1328125 C207.61929687 427.13023437 206.63703125 427.12765625 205.625 427.125 C204.64789063 427.12757813 203.67078125 427.13015625 202.6640625 427.1328125 C200 427 200 427 197 426 C197 425.34 197 424.68 197 424 C196.01 424.33 195.02 424.66 194 425 C188.19318749 422.63676235 182.99370822 418.74049792 178 415 C176.97648437 414.25878906 175.95296875 413.51757812 174.8984375 412.75390625 C173.78609798 411.94059678 172.67412104 411.1267912 171.5625 410.3125 C170.51191406 409.54550781 169.46132813 408.77851563 168.37890625 407.98828125 C167.20134766 407.00408203 167.20134766 407.00408203 166 406 C166 405.34 166 404.68 166 404 C165.01 403.67 164.02 403.34 163 403 C163 402.34 163 401.68 163 401 C162.38125 400.7525 161.7625 400.505 161.125 400.25 C158.59641373 398.76259631 158.28160996 397.56321991 157 395 C154.9664052 393.73195434 154.9664052 393.73195434 153 393 C153 392.34 153 391.68 153 391 C152.34 391 151.68 391 151 391 C149.39821407 389.21895282 147.86618074 387.37462722 146.375 385.5 C145.55773437 384.4790625 144.74046875 383.458125 143.8984375 382.40625 C143.27195312 381.6121875 142.64546875 380.818125 142 380 C142.22816406 380.60328125 142.45632813 381.2065625 142.69140625 381.828125 C142.97886719 382.62734375 143.26632812 383.4265625 143.5625 384.25 C143.85253906 385.03890625 144.14257812 385.8278125 144.44140625 386.640625 C145.04522837 389.19103452 144.8473932 390.55322229 144 393 C144.66 393 145.32 393 146 393 C146.13277344 393.80824219 146.26554687 394.61648438 146.40234375 395.44921875 C146.57894531 396.51785156 146.75554687 397.58648437 146.9375 398.6875 C147.19853516 400.27111328 147.19853516 400.27111328 147.46484375 401.88671875 C147.78829522 403.76840357 148.1294652 405.647326 148.50390625 407.51953125 C149.59383224 412.96916119 150.19415028 418.18836848 150.1875 423.75 C150.1862915 424.80997192 150.1862915 424.80997192 150.18505859 425.89135742 C150.11957315 431.50833931 149.3110057 436.56995612 148 442 C147.61350915 444.03952264 147.23856142 446.08126546 146.875 448.125 C146.70742188 449.05570312 146.53984375 449.98640625 146.3671875 450.9453125 C146.24601562 451.62335938 146.12484375 452.30140625 146 453 C145.34 453 144.68 453 144 453 C144.19722656 453.54398437 144.39445312 454.08796875 144.59765625 454.6484375 C145.8767541 462.12432979 140.25559252 470.83707561 136.5625 477.0390625 C134.87037988 479.16267325 133.4971044 479.99900556 131 481 C126.72279182 476.90566533 122.93888595 473.17803716 120 468 C119.175 467.175 118.35 466.35 117.5 465.5 C115.10103497 463.10103497 113.73088289 460.88480481 112 458 C111.236875 457.236875 110.47375 456.47375 109.6875 455.6875 C106.9221809 452.9221809 104.70819791 450.03246952 102.4296875 446.8671875 C101.05573876 444.96336702 101.05573876 444.96336702 99.3203125 443.4453125 C98 442 98 442 98 439 C97.01 438.67 96.02 438.34 95 438 C93.3125 436.4375 93.3125 436.4375 92 435 C91.96261719 435.68964844 91.92523438 436.37929688 91.88671875 437.08984375 C91.49117815 442.74374757 90.70569747 447.71225926 88.71875 453.02734375 C87.97139817 454.96902285 87.97139817 454.96902285 87.52734375 456.9140625 C86.87509468 459.49406993 85.98045706 461.93996399 85.0625 464.4375 C84.72347656 465.36433594 84.38445312 466.29117187 84.03515625 467.24609375 C77.19274592 485.44948728 77.19274592 485.44948728 70 490 C66.625 490.8125 66.625 490.8125 64 491 C63.71125 491.928125 63.4225 492.85625 63.125 493.8125 C62 497 62 497 60 500 C57.375 500.1875 57.375 500.1875 55 500 C50.93846154 493.6 50.93846154 493.6 51.25 490.5625 C51.62125 489.7890625 51.62125 489.7890625 52 489 C51.34 489 50.68 489 50 489 C49.63720544 487.71073008 49.28503302 486.41846728 48.9375 485.125 C48.74027344 484.40570313 48.54304687 483.68640625 48.33984375 482.9453125 C48 481 48 481 49 479 C48.34 479 47.68 479 47 479 C45.2744723 472.99863637 43.86674412 467.19102942 43 461 C42.34652318 459.32811775 41.67788162 457.66213679 41 456 C38.45618446 448.41823729 36.37806523 440.87465843 35 433 C34.814375 431.989375 34.62875 430.97875 34.4375 429.9375 C33.95173838 427.29279784 33.47303837 424.64700196 33 422 C32.6596875 422.65484375 32.319375 423.3096875 31.96875 423.984375 C22.67115025 441.49155751 8.15233099 467.11540497 -9 478 C-11.80078125 477.73828125 -11.80078125 477.73828125 -14 477 C-14.91505839 473.88880147 -15.1097319 472.31509361 -14.02734375 469.20703125 C-12.94545257 465.82972075 -12.82796224 463.33961582 -12.9375 459.8125 C-13.024988 454.67987055 -12.75557816 449.74049249 -12.21875 444.640625 C-11.92940607 441.14783046 -11.97021129 437.69260903 -12.0625 434.19140625 C-12 432 -12 432 -11.48852539 430.16088867 C-10.94015761 427.73529986 -10.97799718 425.71471563 -11.12109375 423.234375 C-11.16943359 422.34492188 -11.21777344 421.45546875 -11.26757812 420.5390625 C-11.32365234 419.61867188 -11.37972656 418.69828125 -11.4375 417.75 C-11.48970703 416.81414062 -11.54191406 415.87828125 -11.59570312 414.9140625 C-11.72506825 412.60901113 -11.86002034 410.30442711 -12 408 C-12.40089844 408.556875 -12.80179688 409.11375 -13.21484375 409.6875 C-17.11834222 414.92757051 -21.23962941 419.20804099 -26.27734375 423.37109375 C-26.84582031 423.90863281 -27.41429687 424.44617188 -28 425 C-28 425.66 -28 426.32 -28 427 C-33.47619048 432 -33.47619048 432 -36 432 C-36 432.66 -36 433.32 -36 434 C-37.73391951 435.60634015 -39.538091 437.1375287 -41.375 438.625 C-42.37273437 439.44226563 -43.37046875 440.25953125 -44.3984375 441.1015625 C-47 443 -47 443 -49 443 C-49.33 443.66 -49.66 444.32 -50 445 C-50.99 445.66 -51.98 446.32 -53 447 C-53.495 445.515 -53.495 445.515 -54 444 C-54.804375 443.7525 -55.60875 443.505 -56.4375 443.25 C-59 442 -59 442 -60.375 439.1875 C-61.6653013 433.57229988 -60.62937415 427.6558623 -60 422 C-60.66 422 -61.32 422 -62 422 C-61.979375 421.278125 -61.95875 420.55625 -61.9375 419.8125 C-62.01231623 416.44576973 -62.56505092 413.40150261 -63.5625 410.1875 C-65.27388027 401.63059865 -63.72508613 391.17525839 -61 383 C-60.63109697 381.44091346 -60.27784121 379.87806959 -59.9375 378.3125 C-59.76089844 377.50425781 -59.58429688 376.69601562 -59.40234375 375.86328125 C-59.26957031 375.24839844 -59.13679688 374.63351562 -59 374 C-59.46148437 374.43570312 -59.92296875 374.87140625 -60.3984375 375.3203125 C-67.21181561 381.54122295 -74.69293335 386.02705508 -83 390 C-84.22950401 390.62433611 -85.45863948 391.24939828 -86.6875 391.875 C-107.91667465 402.44907363 -107.91667465 402.44907363 -116 402 C-116.86625 402.185625 -117.7325 402.37125 -118.625 402.5625 C-121 403 -121 403 -124 402 C-123.45051042 397.38428756 -122.13375565 394.10337625 -120 390 C-119.48310492 388.673125 -118.98377906 387.33930415 -118.5 386 C-117.238572 382.52940445 -115.71831506 379.27298106 -114 376 C-115.27875 375.690625 -116.5575 375.38125 -117.875 375.0625 C-120.10101675 374.52394756 -121.94739999 374.0263 -124 373 C-125.35776174 357.38573995 -111.00095292 338.88559567 -102 327 C-100.28000994 324.63333434 -98.57735375 322.25437051 -96.875 319.875 C-96.41996094 319.24207031 -95.96492188 318.60914063 -95.49609375 317.95703125 C-93.06133425 314.5943621 -93.06133425 314.5943621 -91 311 C-94.64818477 308.66516174 -97.75350202 308.84558189 -102 309 C-105 309 -105 309 -107.703125 308.53125 C-112.68883433 307.72786556 -117.69621832 307.55785468 -122.734375 307.28125 C-126 307 -126 307 -128 306 C-130.10064735 305.79366083 -132.20597509 305.63359614 -134.3125 305.5 C-142.46169072 304.97964119 -142.46169072 304.97964119 -146 304 C-146.33 303.34 -146.66 302.68 -147 302 C-147.721875 302.185625 -148.44375 302.37125 -149.1875 302.5625 C-155.28430923 303.51089255 -160.6996688 300.83805047 -166 298 C-168.5625 295.75 -168.5625 295.75 -170 294 C-167.85085394 289.74497929 -165.8634466 288.00002939 -161.625 285.875 C-157.99895633 284.02701631 -154.46864943 282.13164274 -151 280 C-151.55429688 279.66226562 -152.10859375 279.32453125 -152.6796875 278.9765625 C-153.40414062 278.53054688 -154.12859375 278.08453125 -154.875 277.625 C-155.95394531 276.96371094 -155.95394531 276.96371094 -157.0546875 276.2890625 C-159 275 -159 275 -161 273 C-162.71572272 271.71107398 -164.44713948 270.44296007 -166.1875 269.1875 C-167.1671875 268.47207031 -168.146875 267.75664062 -169.15625 267.01953125 C-170.83456333 265.82765214 -172.53566831 264.66520731 -174.28125 263.57421875 C-176.1875 262.375 -176.1875 262.375 -179 260 C-179.4375 256.6875 -179.4375 256.6875 -179 254 C-177.75264433 253.3490741 -176.50198168 252.70448331 -175.25 252.0625 C-174.20585937 251.52302734 -174.20585937 251.52302734 -173.140625 250.97265625 C-170.37774456 249.71725985 -167.76037436 249.12272709 -164.7734375 248.640625 C-155.72140393 247.16635243 -148.76695578 243.07291571 -141 238.375 C-135.93060324 235.37527944 -130.86458492 232.93459521 -125 232 C-124.34 232.33 -123.68 232.66 -123 233 C-123 232.34 -123 231.68 -123 231 C-120.79290017 230.34996375 -118.58426108 229.70515255 -116.375 229.0625 C-114.53035156 228.52302734 -114.53035156 228.52302734 -112.6484375 227.97265625 C-109.43266566 227.11534663 -106.27737483 226.54622914 -103 226 C-102.67 225.67 -102.34 225.34 -102 225 C-102.60585937 224.91363281 -103.21171875 224.82726562 -103.8359375 224.73828125 C-121.9779468 221.69600584 -138.09674993 208.35751248 -149 194 C-151.20782859 190.42761069 -153.12070821 186.75303994 -155 183 C-155.42667969 182.24074219 -155.85335937 181.48148438 -156.29296875 180.69921875 C-158.00451782 177.59740115 -159.04868586 175.58423029 -158.75 172 C-158.5025 171.34 -158.255 170.68 -158 170 C-157.32582031 169.86722656 -156.65164062 169.73445312 -155.95703125 169.59765625 C-152.52782332 168.90456667 -149.10791571 168.17272955 -145.6875 167.4375 C-144.43324219 167.16808594 -143.17898437 166.89867187 -141.88671875 166.62109375 C-140.45779297 166.31365234 -140.45779297 166.31365234 -139 166 C-139 160.15200941 -145.64141538 152.8429765 -148.8203125 147.98632812 C-151.77513264 143.43929916 -154.03893335 139.04274281 -156 134 C-154.30363829 131.89592904 -153.45018536 131.06759322 -150.73168945 130.65942383 C-149.86761475 130.67513428 -149.00354004 130.69084473 -148.11328125 130.70703125 C-146.7065918 130.7215332 -146.7065918 130.7215332 -145.27148438 130.73632812 C-144.29501953 130.76146484 -143.31855469 130.78660156 -142.3125 130.8125 C-141.32443359 130.82603516 -140.33636719 130.83957031 -139.31835938 130.85351562 C-136.87835769 130.88887797 -134.43945281 130.93822967 -132 131 C-132.33 130.67 -132.66 130.34 -133 130 C-133.58416341 128.60032134 -134.11848227 127.17961079 -134.625 125.75 C-134.90601563 124.98171875 -135.18703125 124.2134375 -135.4765625 123.421875 C-136.07984494 120.63056818 -135.72787669 118.73681636 -135 116 C-127.57313685 115.89668969 -120.36487404 116.00137301 -113 117 C-113 117.66 -113 118.32 -113 119 C-111.6696875 118.690625 -111.6696875 118.690625 -110.3125 118.375 C-106.62968312 117.95807733 -105.35506249 118.64199852 -102 120 C-100.20040024 120 -98.4003044 119.9930596 -96.6015625 119.9375 C-90.71002695 120.07903839 -84.82710749 121.15021349 -79 122 C-81.02601981 117.84882791 -83.2094366 113.8492885 -85.5625 109.875 C-87.48521123 106.62499779 -89.3575724 103.40023235 -91 100 C-93.69380465 94.53290138 -96.40539035 89.08439897 -99.2890625 83.71484375 C-99.68536865 82.97580811 -100.0816748 82.23677246 -100.48999023 81.4753418 C-101.26894267 80.02780838 -102.05209116 78.58252248 -102.84008789 77.13989258 C-105.31811513 72.5334783 -107.25771491 67.93370888 -109 63 C-107 61 -107 61 -103.3125 60.8125 C-99.4826819 60.90876114 -95.78697656 61.41236571 -92 62 C-90.33379197 62.15098325 -88.66708067 62.29647807 -87 62.4375 C-71.64599203 63.96365139 -58.00178095 72.28560997 -45 80 C-44.93941406 79.04738281 -44.87882813 78.09476562 -44.81640625 77.11328125 C-44.73261719 75.85902344 -44.64882812 74.60476562 -44.5625 73.3125 C-44.44068359 71.45044922 -44.44068359 71.45044922 -44.31640625 69.55078125 C-44.05428365 66.60918314 -43.61367108 63.87990521 -43 61 C-42.72440567 58.73017449 -42.50211577 56.45929998 -42.28125 54.18359375 C-42 52 -42 52 -41.4921875 49.98046875 C-40.98086334 47.92299773 -40.78865191 45.98688892 -40.625 43.875 C-40.07424646 38.67249737 -38.60034748 33.96248099 -37 29 C-36.66484375 27.87207031 -36.3296875 26.74414062 -35.984375 25.58203125 C-35.63890625 24.42058594 -35.2934375 23.25914063 -34.9375 22.0625 C-34.61652344 20.98097656 -34.29554688 19.89945313 -33.96484375 18.78515625 C-33 16 -33 16 -31 13 C-26.08747438 14.49113906 -23.16274088 17.33016174 -19.5625 20.8125 C-13.02019805 28.11282489 -13.02019805 28.11282489 -5 32 C-2.0851686 20.63792306 -2.0851686 20.63792306 -1 9 C-1 8.34 -1 7.68 -1 7 C-0.34 7 0.32 7 1 7 C0.67 4.69 0.34 2.38 0 0 Z M53 120 C52.97300275 122.27076842 52.95360547 124.54162821 52.9375 126.8125 C52.92589844 128.07707031 52.91429687 129.34164062 52.90234375 130.64453125 C52.83840884 133.99605237 52.83840884 133.99605237 54 137 C54.03954234 139.33299825 54.04401732 141.66708189 54 144 C52.3603125 144.2165625 52.3603125 144.2165625 50.6875 144.4375 C47.06877013 144.88288104 47.06877013 144.88288104 44 146 C37.41490978 145.87088058 33.8218237 143.09541909 29 139 C28.74605469 139.60328125 28.49210937 140.2065625 28.23046875 140.828125 C24.82120838 148.74475956 24.82120838 148.74475956 22 152 C21.33484375 152.83337891 21.33484375 152.83337891 20.65625 153.68359375 C16.94433319 158.23826718 13.67067353 161.10977549 8 163 C3.82282499 163.38677546 1.72550864 163.48367243 -1.8125 161.125 C-3.21788731 159.75976661 -4.61454417 158.38545583 -6 157 C-7.65893182 155.65705519 -9.32476605 154.32255312 -11 153 C-11.99 153.495 -11.99 153.495 -13 154 C-11.83623779 157.14215798 -10.6740086 158.26486801 -8 160.4375 C-4.95490065 163.03852236 -3.8253842 164.14820709 -3 168 C-3.43636364 174.43636364 -3.43636364 174.43636364 -6 177 C-7.98821313 177.39764263 -9.98944339 177.73775349 -12 178 C-12.08765625 178.87011719 -12.1753125 179.74023438 -12.265625 180.63671875 C-13.1017144 184.46583031 -14.45259883 186.6557326 -16.75 189.8125 C-17.42546875 190.76769531 -18.1009375 191.72289062 -18.796875 192.70703125 C-21.87417737 195.90982645 -24.12473049 195.89564785 -28.38671875 196.1328125 C-29.14597656 196.13023437 -29.90523437 196.12765625 -30.6875 196.125 C-31.45449219 196.12757813 -32.22148437 196.13015625 -33.01171875 196.1328125 C-35 196 -35 196 -37 195 C-35.63629701 197.99220268 -34.05091917 200.29026529 -31.875 202.75 C-31.33617187 203.36359375 -30.79734375 203.9771875 -30.2421875 204.609375 C-29.62730469 205.29773438 -29.62730469 205.29773438 -29 206 C-35.14381432 205.5273989 -40.45822261 203.98363141 -46.265625 201.9375 C-49.58727474 200.7901697 -49.58727474 200.7901697 -53 200 C-53.99 200.495 -53.99 200.495 -55 201 C-52.6849061 203.3150939 -51.24734186 203.64760994 -48.125 204.5 C-43.76014471 205.69870653 -40.24495056 206.75504944 -37 210 C-36.13375 210.4125 -35.2675 210.825 -34.375 211.25 C-32 213 -32 213 -31.25 215.8125 C-32.35206098 220.49625918 -35.00947368 222.49323102 -39 225 C-43.59553986 226.72332745 -48.14881278 227.35927716 -53 228 C-54.33917261 228.30903983 -55.67653254 228.62942911 -57 229 C-56.42055068 230.99863756 -56.42055068 230.99863756 -55 233 C-52.11681225 234.18335395 -52.11681225 234.18335395 -49 235 C-46.40526978 236.15321343 -45.0286912 236.9713088 -43 239 C-41.4840625 239.9590625 -41.4840625 239.9590625 -39.9375 240.9375 C-37 243 -37 243 -36 246 C-35.34 246.33 -34.68 246.66 -34 247 C-34 249.31 -34 251.62 -34 254 C-36.93720508 255.52299523 -39.9168649 256.80100302 -43 258 C-42.21869929 260.49552484 -42.21869929 260.49552484 -41 263 C-40.01 263.33 -39.02 263.66 -38 264 C-38 264.99 -38 265.98 -38 267 C-40.5903421 267.72529579 -42.99761777 268.11836143 -45.6875 268.4375 C-46.780625 268.623125 -47.87375 268.80875 -49 269 C-49.495 269.99 -49.495 269.99 -50 271 C-49.37351563 271.06058594 -48.74703125 271.12117187 -48.1015625 271.18359375 C-47.28429687 271.26738281 -46.46703125 271.35117187 -45.625 271.4375 C-44.40683594 271.55931641 -44.40683594 271.55931641 -43.1640625 271.68359375 C-41 272 -41 272 -39 273 C-36.90178785 272.60061233 -36.90178785 272.60061233 -35 272 C-34.505 272.99 -34.505 272.99 -34 274 C-33.01 274 -32.02 274 -31 274 C-31.55105909 277.9492568 -32.38935371 281.34920174 -34 285 C-30.696686 285.88935377 -27.37705625 286.46274105 -24 287 C-23.505 289.475 -23.505 289.475 -23 292 C-25.475 292.99 -25.475 292.99 -28 294 C-28 294.66 -28 295.32 -28 296 C-28.928125 296.103125 -29.85625 296.20625 -30.8125 296.3125 C-34.26210921 297.05653336 -34.69026782 297.59402898 -37 300 C-38.9959722 300.67863055 -40.99568551 301.34641919 -43 302 C-43.495 302.99 -43.495 302.99 -44 304 C-47.32009232 305.60203379 -50.70130122 307.02305302 -54.09375 308.46484375 C-57.29279639 309.72647943 -57.29279639 309.72647943 -58 313 C-54.11721119 313 -53.41945034 312.9464952 -50.3984375 311.03125 C-49.74359375 310.62519531 -49.08875 310.21914063 -48.4140625 309.80078125 C-47.74117187 309.37152344 -47.06828125 308.94226563 -46.375 308.5 C-39.23986486 304 -39.23986486 304 -37 304 C-36.4225 303.401875 -35.845 302.80375 -35.25 302.1875 C-31.08383878 298.13706548 -26.69469467 296.67793984 -21 296 C-21.42275227 301.3900915 -22.49494909 303.94728488 -26 308 C-26.77833534 310.18214568 -26.77833534 310.18214568 -27 312 C-22.34598561 310.72014604 -18.84836071 308.74604981 -14.9296875 306.0234375 C-13 305 -13 305 -9 305 C-8.01 305.99 -8.01 305.99 -7 307 C-6.46375 307.391875 -5.9275 307.78375 -5.375 308.1875 C-3.19129683 311.06601782 -3.70227527 313.48684822 -4 317 C-4.60927518 319.01822402 -5.26480478 321.02416285 -6 323 C-6 323.66 -6 324.32 -6 325 C-6.66 325 -7.32 325 -8 325 C-7.01 326.98 -7.01 326.98 -6 329 C-5.54109375 328.44570313 -5.0821875 327.89140625 -4.609375 327.3203125 C-3.68898438 326.23363281 -3.68898438 326.23363281 -2.75 325.125 C-2.14671875 324.40570313 -1.5434375 323.68640625 -0.921875 322.9453125 C0.98331823 321.01688521 2.58261163 320.14670987 5 319 C5.33 318.34 5.66 317.68 6 317 C9.51013628 317.94868548 10.7517941 318.59551631 12.6875 321.75 C15.04694477 327.59243467 16.35395884 332.75493544 17 339 C16.34 339.33 15.68 339.66 15 340 C18.73219731 339.41737191 20.59479309 337.79517599 23.375 335.3125 C27.56594871 331.96661144 27.56594871 331.96661144 31.25 332.25 C38.48784722 336.85590278 38.48784722 336.85590278 39.4609375 340.9296875 C39.61136501 342.30428375 39.73145243 343.68255537 39.8203125 345.0625 C40.05614795 347.60542141 40.92241009 349.70114153 42 352 C42.66 351.67 43.32 351.34 44 351 C44 350.34 44 349.68 44 349 C44.66 349 45.32 349 46 349 C46.28875 348.360625 46.5775 347.72125 46.875 347.0625 C48 345 48 345 50 344 C50.268125 343.360625 50.53625 342.72125 50.8125 342.0625 C52.40090493 339.30369144 54.05981331 339.02906534 57 338 C57.66 337.34 58.32 336.68 59 336 C66.1880075 336.34228607 66.1880075 336.34228607 68.5625 338.265625 C70.22950304 340.2769004 71.64786914 342.36638509 73.0625 344.5625 C74.61527798 346.96871321 75.97124564 348.97124564 78 351 C80.19569621 348.06254756 80.19569621 348.06254756 80.9375 344.375 C81.288125 343.26125 81.63875 342.1475 82 341 C82.99 340.67 83.98 340.34 85 340 C85.12375 341.134375 85.2475 342.26875 85.375 343.4375 C86.27049982 350.46468612 87.4804184 356.76074171 91 363 C93.51082426 359.23376361 93.31501017 355.35764073 93 351 C92.814375 350.154375 92.62875 349.30875 92.4375 348.4375 C91.84873716 345.15724992 92.50567766 342.27488548 93 339 C92.67 338.34 92.34 337.68 92 337 C92.66 336.67 93.32 336.34 94 336 C94.28875 335.34 94.5775 334.68 94.875 334 C96 332 96 332 97.8359375 331.28515625 C101.82606154 330.75938178 104.75953835 332.83382183 108 335 C110.83981997 337.51571008 113.41859667 340.22336449 116 343 C117.32867951 344.33797097 118.66075397 345.6726057 120 347 C121.26026798 344.47946405 120.91874445 343.1457902 120.5625 340.375 C120.40974609 339.14910156 120.40974609 339.14910156 120.25390625 337.8984375 C120.17011719 337.27195312 120.08632813 336.64546875 120 336 C119.34 336 118.68 336 118 336 C118.165 335.319375 118.33 334.63875 118.5 333.9375 C119.07089059 330.5835178 119.06659023 327.39610195 119 324 C119.66 324 120.32 324 121 324 C121 323.34 121 322.68 121 322 C123.4375 322.8125 123.4375 322.8125 126 324 C126.33 324.99 126.66 325.98 127 327 C127.66 327 128.32 327 129 327 C129 327.66 129 328.32 129 329 C129.66 329 130.32 329 131 329 C131.33 329.99 131.66 330.98 132 332 C132.66 332 133.32 332 134 332 C133.67 327.05 133.34 322.1 133 317 C137.69478906 318.17369727 138.14636506 319.0598642 140.75 322.9375 C141.36359375 323.83339844 141.9771875 324.72929687 142.609375 325.65234375 C144 328 144 328 144 330 C144.66 330 145.32 330 146 330 C146 330.66 146 331.32 146 332 C146.66 332 147.32 332 148 332 C148.3403125 333.0828125 148.3403125 333.0828125 148.6875 334.1875 C150.24831013 337.53209313 152.3031287 339.51603959 155 342 C155.82485423 340.24099518 155.82485423 340.24099518 156 338 C154.58724083 335.61786842 154.58724083 335.61786842 152.5625 333.375 C149 329.17808219 149 329.17808219 149 327 C148.236875 326.236875 147.47375 325.47375 146.6875 324.6875 C144.22292692 322.22292692 142.73803854 319.97949465 141 317 C140.34 316.67 139.68 316.34 139 316 C136.52176842 311.90138623 135.27009322 308.79653027 136 304 C138.23206431 301.15219381 139.54992999 300.15002334 143 299 C143.33 299.66 143.66 300.32 144 301 C144.99 301.33 145.98 301.66 147 302 C147.66 302.66 148.32 303.32 149 304 C151.06874034 304.6425235 151.06874034 304.6425235 153 305 C153.33 304.34 153.66 303.68 154 303 C152.77310509 300.16870406 151.35452118 297.46507718 149.93359375 294.7265625 C149 292 149 292 149.66015625 289.7734375 C151 288 151 288 154 286 C158.32539879 285.91336826 160.54829972 287.21253952 163.61328125 290.0546875 C164.8594099 291.31535212 166.09222963 292.58928926 167.3125 293.875 C167.94478516 294.51308594 168.57707031 295.15117187 169.22851562 295.80859375 C173.85198262 300.55594785 173.85198262 300.55594785 175 304 C176.40105576 305.42857119 176.40105576 305.42857119 178.0625 306.6875 C179.031875 307.450625 180.00125 308.21375 181 309 C181 308.34 181 307.68 181 307 C181.99 306.67 182.98 306.34 184 306 C178.79282027 298.98162732 173.08307571 292.9129242 166.66162109 286.99951172 C163.00800315 283.51001137 161.18483235 281.30388491 161 276 C162.98 276.33 164.96 276.66 167 277 C167.2773501 273.81509993 167.2773501 273.81509993 165 271 C164.34 271 163.68 271 163 271 C163 270.34 163 269.68 163 269 C162.34 269 161.68 269 161 269 C160.67 267.35 160.34 265.7 160 264 C159.34 264 158.68 264 158 264 C158.00601465 262.22868675 158.05612902 260.45748407 158.125 258.6875 C158.14820313 257.70136719 158.17140625 256.71523438 158.1953125 255.69921875 C159 253 159 253 161.53125 251.21875 C165.51155031 249.82026611 169.19582539 249.22437164 173.375 248.8125 C174.11105469 248.73064453 174.84710938 248.64878906 175.60546875 248.56445312 C177.40254625 248.36607444 179.20114893 248.18159423 181 248 C176.65834625 245.81093088 172.58513865 244.10887126 167.8125 243.125 C164 242 164 242 162.5 239.875 C162.335 239.25625 162.17 238.6375 162 238 C164.475 235.03 164.475 235.03 167 232 C165.7934375 230.63875 165.7934375 230.63875 164.5625 229.25 C160.90665614 224.80031576 160.90665614 224.80031576 161 222 C163.11648137 219.4299869 165.22154417 217.85230389 168 216 C165 214.66666667 165 214.66666667 162 216 C161.01 215.01 160.02 214.02 159 213 C160.19899698 209.9168649 161.47700477 206.93720508 163 204 C163.66 204 164.32 204 165 204 C165 203.34 165 202.68 165 202 C166.98 201.34 168.96 200.68 171 200 C171 199.01 171 198.02 171 197 C173.475 196.01 173.475 196.01 176 195 C175.67 194.34 175.34 193.68 175 193 C174.01 193 173.02 193 172 193 C172 193.66 172 194.32 172 195 C171.01 195 170.02 195 169 195 C169 194.34 169 193.68 169 193 C168.01 193.33 167.02 193.66 166 194 C163.60509014 194.06970052 161.20832309 194.08448003 158.8125 194.0625 C157.54019531 194.05347656 156.26789063 194.04445313 154.95703125 194.03515625 C153.98121094 194.02355469 153.00539063 194.01195312 152 194 C153 191 153 191 155.03125 189.90234375 C155.8459375 189.58394531 156.660625 189.26554687 157.5 188.9375 C160.96056812 187.77297997 160.96056812 187.77297997 163 185 C164.64363134 184.27840576 166.31050386 183.60648579 168 183 C167.67 182.01 167.34 181.02 167 180 C165.95199219 180.49371094 164.90398437 180.98742187 163.82421875 181.49609375 C162.44535338 182.14331627 161.06644488 182.79044689 159.6875 183.4375 C158.99720703 183.76298828 158.30691406 184.08847656 157.59570312 184.42382812 C151.99940265 187.04624912 148.19282004 188.11684566 142 188 C141.67 187.34 141.34 186.68 141 186 C140.34 186 139.68 186 139 186 C139 185.34 139 184.68 139 184 C138.34 184 137.68 184 137 184 C139.49503501 176.76111553 142.91040496 172.59675742 149 168 C148.67 167.34 148.34 166.68 148 166 C142.98208816 167.09440416 142.98208816 167.09440416 138.9375 170.0625 C137 172 137 172 134.0625 173 C130.09010688 173 128.82972789 171.67252079 126 169 C125.34 168.67 124.68 168.34 124 168 C125.2173913 160.34782609 125.2173913 160.34782609 126 158 C126.66 157.67 127.32 157.34 128 157 C128.144375 155.96875 128.28875 154.9375 128.4375 153.875 C129.14048454 149.03221763 130.81467765 145.3706447 133 141 C132.01 140.01 132.01 140.01 131 139 C129.06172464 140.76999098 127.12435656 142.54095761 125.1875 144.3125 C124.64029297 144.81201172 124.09308594 145.31152344 123.52929688 145.82617188 C120.32822926 148.74848147 120.32822926 148.74848147 117.29296875 151.83984375 C116 153 116 153 113.125 153.25 C110.33362193 153.02668975 107.72296145 152.64069681 105 152 C102.72858546 146.60539047 102.79586639 141.73842251 103 136 C97.01852957 138.151915 97.01852957 138.151915 92.1875 142.0625 C89.20244501 144.70640585 86.93013852 144.72895596 83 145 C81.4221875 145.1546875 81.4221875 145.1546875 79.8125 145.3125 C76.18380874 144.90931208 75.25712988 143.80195433 73 141 C71.97676564 139.68441297 70.96873032 138.35622245 70 137 C69.34 137.33 68.68 137.66 68 138 C68 138.66 68 139.32 68 140 C64.6875 140.3125 64.6875 140.3125 61 140 C57.49862277 136.26519763 57.41503872 131.8974569 57 127 C56.34 127 55.68 127 55 127 C55.33 124.69 55.66 122.38 56 120 C55.01 120 54.02 120 53 120 Z M-79 122 C-78 124 -78 124 -78 124 Z M71 135 C72 137 72 137 72 137 Z M-56 198 C-55 200 -55 200 -55 200 Z M189.3125 212 C185.71550194 213.08588621 182.73577497 213.149431 179 213 C179 213.66 179 214.32 179 215 C183.72383963 215.65156409 188.21974517 216.11950637 193 216 C193.33 214.35 193.66 212.7 194 211 C191.83448771 210.88375543 191.83448771 210.88375543 189.3125 212 Z M175 214 C176 216 176 216 176 216 Z M134 332 C135 334 135 334 135 334 Z M86 350 C87 352 87 352 87 352 Z M38 441 C39 443 39 443 39 443 Z " fill="#FEF179" transform="translate(179,0)"/>
<path d="M0 0 C0.33 0 0.66 0 1 0 C1 1.65 1 3.3 1 5 C0.67 5 0.34 5 0 5 C0 3.35 0 1.7 0 0 Z " fill="#FFFF67" transform="translate(165,461)"/>
<path d="M0 0 C0.33 0 0.66 0 1 0 C1 1.65 1 3.3 1 5 C0.67 5 0.34 5 0 5 C0 3.35 0 1.7 0 0 Z " fill="#FFFF6B" transform="translate(408,48)"/>
<path d="M0 0 C4 1 4 1 4 1 Z " fill="#FFFF66" transform="translate(82,61)"/>
<path d="M0 0 C1 4 1 4 1 4 Z " fill="#FFFF6D" transform="translate(365,56)"/>
<path d="" fill="#FFFF61" transform="translate(0,0)"/>
<path d="" fill="#FFFF6B" transform="translate(0,0)"/>
<path d="M0 0 C3 1 3 1 3 1 Z " fill="#FFFF62" transform="translate(147,197)"/>
<path d="M0 0 C3 1 3 1 3 1 Z " fill="#FFFF5A" transform="translate(218,146)"/>
<path d="" fill="#FFFF6D" transform="translate(0,0)"/>
<path d="" fill="#FFFF73" transform="translate(0,0)"/>
<path d="" fill="#FFFF76" transform="translate(0,0)"/>
<path d="M0 0 C2 1 2 1 2 1 Z " fill="#FFFF5B" transform="translate(63,402)"/>
<path d="M0 0 C2 1 2 1 2 1 Z " fill="#FFFF57" transform="translate(454,306)"/>
<path d="" fill="#FFFF65" transform="translate(0,0)"/>
<path d="M0 0 C2 1 2 1 2 1 Z " fill="#FFFF5F" transform="translate(138,268)"/>
<path d="M0 0 C2 1 2 1 2 1 Z " fill="#FFFF64" transform="translate(323,189)"/>
<path d="M0 0 C2 1 2 1 2 1 Z " fill="#FFFF66" transform="translate(184,164)"/>
<path d="M0 0 C2 1 2 1 2 1 Z " fill="#FFFF74" transform="translate(181,164)"/>
<path d="M0 0 C2 1 2 1 2 1 Z " fill="#FFFF70" transform="translate(262,146)"/>
<path d="M0 0 C2 1 2 1 2 1 Z " fill="#FFFF74" transform="translate(227,146)"/>
<path d="M0 0 C2 1 2 1 2 1 Z " fill="#FFFF6C" transform="translate(401,119)"/>
<path d="M0 0 C2 1 2 1 2 1 Z " fill="#FFFF5E" transform="translate(78,119)"/>
<path d="M0 0 C2 1 2 1 2 1 Z " fill="#FFFF48" transform="translate(424,114)"/>
<path d="" fill="#FFFF5F" transform="translate(0,0)"/>
<path d="" fill="#FFFF67" transform="translate(0,0)"/>
<path d="" fill="#FFFF7F" transform="translate(0,0)"/>
<path d="" fill="#FFFF55" transform="translate(0,0)"/>
<path d="" fill="#FFFF6E" transform="translate(0,0)"/>
<path d="" fill="#FFFF80" transform="translate(0,0)"/>
<path d="" fill="#FFFF80" transform="translate(0,0)"/>
<path d="" fill="#FFFF80" transform="translate(0,0)"/>
<path d="" fill="#FFFF80" transform="translate(0,0)"/>
<path d="" fill="#FFFF60" transform="translate(0,0)"/>
<path d="" fill="#FFFF80" transform="translate(0,0)"/>
<path d="" fill="#FFFF80" transform="translate(0,0)"/>
<path d="" fill="#FFFF70" transform="translate(0,0)"/>
<path d="" fill="#FFFF5B" transform="translate(0,0)"/>
<path d="" fill="#FFFF80" transform="translate(0,0)"/>
<path d="" fill="#FFFF80" transform="translate(0,0)"/>
<path d="" fill="#FFFF55" transform="translate(0,0)"/>
<path d="" fill="#FFFF80" transform="translate(0,0)"/>
<path d="" fill="#FFFF80" transform="translate(0,0)"/>
<path d="" fill="#FFFF80" transform="translate(0,0)"/>
<path d="" fill="#FFFF55" transform="translate(0,0)"/>
<path d="" fill="#FFFF80" transform="translate(0,0)"/>
<path d="" fill="#FFFF66" transform="translate(0,0)"/>
<path d="" fill="#FFFF55" transform="translate(0,0)"/>
<path d="" fill="#FFFF6A" transform="translate(0,0)"/>
<path d="" fill="#FFFF63" transform="translate(0,0)"/>
<path d="" fill="#FFFF55" transform="translate(0,0)"/>
<path d="" fill="#FFFF3E" transform="translate(0,0)"/>
<path d="" fill="#FFFF55" transform="translate(0,0)"/>
</svg>
